<?xml version="1.0" standalone="no"?>
<!DOCTYPE svg PUBLIC "-//W3C//DTD SVG 20010904//EN"
 "http://www.w3.org/TR/2001/REC-SVG-20010904/DTD/svg10.dtd">
<svg version="1.0" xmlns="http://www.w3.org/2000/svg"
 width="394.000000pt" height="394.000000pt" viewBox="0 0 394.000000 394.000000"
 preserveAspectRatio="xMidYMid meet">

<g transform="translate(0.000000,394.000000) scale(0.100000,-0.100000)"
fill="#000000" stroke="none">
<path d="M1550 3199 c-14 -6 -36 -20 -48 -32 -54 -50 -52 -27 -52 -732 l0
-655 -79 0 c-99 0 -111 -9 -111 -87 0 -69 28 -123 80 -152 37 -21 47 -21 522
-21 l485 0 34 23 c18 12 44 38 56 56 l23 34 0 653 0 654 150 0 150 0 0 79 c0
92 -20 131 -85 168 l-40 23 -530 -1 c-328 0 -540 -4 -555 -10z m916 -48 c-45
-49 -45 -59 -46 -799 0 -793 4 -748 -76 -784 -51 -22 -88 -18 -129 13 -38 30
-49 57 -55 129 l-5 65 -337 3 -338 2 0 634 c0 425 4 644 11 663 13 34 47 72
74 83 11 5 222 9 469 9 443 1 449 1 432 -18z m211 -12 c30 -29 43 -58 48 -116
l5 -43 -135 0 -135 0 0 43 c0 89 65 152 148 144 27 -3 53 -14 69 -28z m-557
-1446 c0 -33 8 -62 25 -92 14 -23 25 -44 25 -45 0 -1 -174 -1 -387 -1 -347 1
-391 3 -420 18 -35 19 -56 52 -66 104 -13 67 -37 63 414 63 l409 0 0 -47z"/>
<path d="M1462 412 c-9 -6 -12 -49 -10 -178 l3 -169 25 0 c24 0 25 3 28 68 3
63 4 67 27 67 13 0 37 11 52 24 25 22 28 31 28 85 0 47 -4 65 -20 80 -22 22
-112 37 -133 23z m93 -102 c0 -39 -3 -45 -22 -48 -21 -3 -23 0 -23 48 0 48 2
51 23 48 19 -3 22 -9 22 -48z"/>
<path d="M1728 408 c-18 -15 -72 -328 -59 -341 19 -19 46 -2 49 31 3 29 6 32
37 32 31 0 34 -3 37 -32 2 -28 8 -34 31 -36 20 -2 27 1 27 13 0 45 -54 331
-64 337 -17 11 -40 9 -58 -4z m45 -190 c5 -35 4 -38 -19 -38 -19 0 -24 4 -20
18 2 9 8 42 12 72 7 54 7 54 14 20 4 -19 10 -52 13 -72z"/>
<path d="M1943 413 c-10 -3 -13 -49 -13 -179 l0 -174 24 0 c29 0 36 16 36 85
0 52 0 53 35 59 19 4 41 17 50 29 17 25 20 118 5 147 -15 28 -100 49 -137 33z
m87 -103 c0 -43 -3 -50 -20 -50 -17 0 -20 7 -20 50 0 43 3 50 20 50 17 0 20
-7 20 -50z"/>
<path d="M2182 412 c-9 -7 -12 -49 -10 -178 l3 -169 73 -3 c71 -3 72 -3 72 23
0 23 -3 25 -45 25 l-45 0 0 55 0 55 35 0 c31 0 35 3 35 25 0 22 -4 25 -35 25
-35 0 -35 0 -35 45 l0 45 45 0 c41 0 45 2 45 24 0 13 -7 27 -16 30 -23 9 -107
7 -122 -2z"/>
<path d="M2412 412 c-9 -6 -12 -49 -10 -178 l3 -169 25 0 c24 0 25 3 28 73 3
69 4 73 25 70 20 -3 23 -10 27 -73 5 -68 6 -70 33 -73 l27 -3 0 68 c0 45 -5
76 -15 90 -13 19 -13 24 0 50 25 47 13 124 -21 137 -29 11 -110 16 -122 8z
m93 -97 c0 -34 -3 -40 -22 -43 -21 -3 -23 1 -23 43 0 42 2 46 23 43 19 -3 22
-9 22 -43z"/>
</g>
</svg>
