<?xml version="1.0" standalone="no"?>
<!DOCTYPE svg PUBLIC "-//W3C//DTD SVG 20010904//EN"
 "http://www.w3.org/TR/2001/REC-SVG-20010904/DTD/svg10.dtd">
<svg version="1.0" xmlns="http://www.w3.org/2000/svg"
 width="390.000000pt" height="390.000000pt" viewBox="0 0 390.000000 390.000000"
 preserveAspectRatio="xMidYMid meet">

<g transform="translate(0.000000,390.000000) scale(0.100000,-0.100000)"
fill="#000000" stroke="none">
<path d="M1475 3223 c-11 -3 -35 -16 -53 -30 -65 -49 -62 -19 -62 -708 0 -605
1 -628 21 -687 43 -130 138 -235 267 -296 l77 -37 225 0 225 0 77 37 c129 61
224 166 267 296 20 59 21 82 21 687 0 690 3 659 -63 709 -67 52 -161 43 -216
-19 -43 -49 -51 -91 -51 -262 l0 -153 -32 20 c-37 22 -116 27 -151 9 -12 -6
-34 -23 -49 -37 l-28 -26 -27 26 c-16 14 -38 31 -50 37 -35 18 -114 13 -150
-9 l-33 -20 0 153 c0 168 -8 211 -47 258 -42 49 -102 68 -168 52z m112 -58
c58 -38 58 -38 58 -420 l0 -350 -81 -5 c-66 -5 -89 -11 -123 -33 l-41 -27 0
389 c0 383 0 389 22 416 42 53 110 66 165 30z m837 11 c18 -7 42 -26 54 -41
l22 -28 0 -612 c0 -656 0 -657 -52 -759 -27 -53 -112 -142 -166 -173 -87 -51
-149 -63 -331 -63 -228 0 -302 22 -409 123 -63 61 -97 115 -123 198 -16 50
-19 93 -19 242 0 203 6 227 72 267 30 18 51 20 241 20 l207 0 36 -33 c68 -62
54 -160 -29 -198 -34 -15 -66 -19 -164 -19 -103 0 -123 -2 -123 -15 0 -12 17
-15 95 -15 105 0 146 -12 185 -54 22 -24 26 -39 30 -114 4 -68 8 -87 20 -87
11 0 16 15 18 65 4 87 -4 123 -36 161 -19 24 -23 34 -13 37 7 2 27 17 45 33
30 25 37 27 88 22 66 -7 117 14 151 61 22 31 22 36 27 468 5 422 6 438 26 465
20 28 77 63 102 63 7 0 27 -6 46 -14z m-586 -422 c12 -4 22 -13 22 -21 0 -8 8
-13 17 -11 10 2 18 -3 18 -13 0 -8 8 -23 18 -33 14 -15 17 -37 17 -152 0 -74
-4 -134 -9 -134 -5 0 -8 6 -7 13 0 6 -3 12 -9 12 -5 0 -9 -6 -9 -12 1 -7 -9
-13 -22 -13 -14 0 -24 6 -24 14 0 24 -21 30 -27 7 -6 -24 -43 -29 -43 -7 0 24
-21 30 -27 7 -3 -14 -13 -21 -29 -21 -16 0 -22 4 -18 14 3 8 1 17 -5 21 -15 8
-14 42 0 47 8 3 8 10 -2 26 -10 17 -11 26 -3 39 8 13 8 23 0 35 -8 14 -7 24 3
40 10 16 10 23 2 26 -6 2 -11 9 -11 16 0 22 25 66 38 66 6 0 12 5 12 10 0 21
56 35 98 24z m295 -3 c10 -4 18 -11 17 -16 0 -6 8 -11 19 -13 13 -2 18 -9 14
-18 -3 -7 2 -17 11 -20 20 -8 21 -44 1 -44 -8 0 -15 -7 -15 -15 0 -8 7 -15 15
-15 8 0 15 -9 15 -20 0 -11 -7 -20 -15 -20 -8 0 -15 -7 -15 -15 0 -8 7 -15 15
-15 8 0 15 -9 15 -19 0 -10 -7 -21 -15 -25 -8 -3 -15 -10 -15 -16 0 -5 7 -10
15 -10 9 0 15 -9 15 -25 0 -15 -5 -24 -12 -22 -7 1 -13 -5 -13 -13 0 -8 6 -14
13 -13 7 2 12 -7 12 -22 0 -15 -5 -24 -12 -23 -7 2 -13 -4 -13 -12 0 -8 6 -14
13 -12 7 1 12 -8 12 -23 0 -16 -6 -25 -15 -25 -17 0 -20 -27 -4 -32 16 -5 -5
-44 -31 -58 -16 -9 -20 -8 -20 5 0 8 -7 15 -15 15 -18 0 -20 -26 -2 -33 6 -3
-5 -6 -27 -6 -30 -1 -37 2 -32 14 3 9 -1 18 -9 21 -19 8 -19 40 0 48 22 8 18
26 -5 26 -11 0 -20 7 -20 15 0 9 -13 29 -30 45 -29 29 -40 60 -20 60 6 0 10 7
10 15 0 8 -4 15 -10 15 -17 0 -11 32 8 46 16 12 16 13 0 19 -10 4 -18 14 -18
22 0 9 8 22 18 29 16 12 16 13 0 19 -10 4 -18 15 -18 25 0 10 8 21 18 25 16 6
16 7 -1 20 -17 12 -17 14 0 49 10 19 21 36 26 36 4 0 16 9 27 20 20 20 59 25
93 11z"/>
<path d="M1785 2741 c-7 -12 12 -24 25 -16 11 7 4 25 -10 25 -5 0 -11 -4 -15
-9z"/>
<path d="M1825 2710 c-4 -6 -3 -16 3 -22 6 -6 12 -6 17 2 4 6 3 16 -3 22 -6 6
-12 6 -17 -2z"/>
<path d="M1750 2694 c0 -17 22 -14 28 4 2 7 -3 12 -12 12 -9 0 -16 -7 -16 -16z"/>
<path d="M1717 2673 c-12 -11 -8 -23 8 -23 8 0 15 7 15 15 0 16 -12 20 -23 8z"/>
<path d="M1785 2671 c-7 -12 12 -24 25 -16 11 7 4 25 -10 25 -5 0 -11 -4 -15
-9z"/>
<path d="M1860 2666 c0 -9 7 -16 16 -16 9 0 14 5 12 12 -6 18 -28 21 -28 4z"/>
<path d="M1750 2624 c0 -9 5 -14 12 -12 18 6 21 28 4 28 -9 0 -16 -7 -16 -16z"/>
<path d="M1820 2625 c0 -8 7 -15 15 -15 8 0 15 7 15 15 0 8 -7 15 -15 15 -8 0
-15 -7 -15 -15z"/>
<path d="M1892 2628 c6 -18 28 -21 28 -4 0 9 -7 16 -16 16 -9 0 -14 -5 -12
-12z"/>
<path d="M1715 2600 c-4 -6 -3 -16 3 -22 6 -6 12 -6 17 2 4 6 3 16 -3 22 -6 6
-12 6 -17 -2z"/>
<path d="M1787 2604 c-8 -8 1 -24 14 -24 5 0 9 7 9 15 0 15 -12 20 -23 9z"/>
<path d="M1865 2600 c-4 -6 -3 -16 3 -22 6 -6 12 -6 17 2 4 6 3 16 -3 22 -6 6
-12 6 -17 -2z"/>
<path d="M1750 2555 c0 -8 7 -15 15 -15 8 0 15 7 15 15 0 8 -7 15 -15 15 -8 0
-15 -7 -15 -15z"/>
<path d="M1820 2555 c0 -8 7 -15 15 -15 8 0 15 7 15 15 0 8 -7 15 -15 15 -8 0
-15 -7 -15 -15z"/>
<path d="M1897 2563 c-12 -11 -8 -23 8 -23 8 0 15 7 15 15 0 16 -12 20 -23 8z"/>
<path d="M1712 2518 c6 -18 28 -21 28 -4 0 9 -7 16 -16 16 -9 0 -14 -5 -12
-12z"/>
<path d="M1785 2521 c-7 -12 12 -24 25 -16 11 7 4 25 -10 25 -5 0 -11 -4 -15
-9z"/>
<path d="M1860 2514 c0 -9 5 -14 12 -12 18 6 21 28 4 28 -9 0 -16 -7 -16 -16z"/>
<path d="M1750 2486 c0 -9 7 -16 16 -16 17 0 14 22 -4 28 -7 2 -12 -3 -12 -12z"/>
<path d="M1827 2493 c-12 -11 -8 -23 8 -23 8 0 15 7 15 15 0 16 -12 20 -23 8z"/>
<path d="M1897 2493 c-12 -11 -8 -23 8 -23 8 0 15 7 15 15 0 16 -12 20 -23 8z"/>
<path d="M1712 2448 c6 -18 28 -21 28 -4 0 9 -7 16 -16 16 -9 0 -14 -5 -12
-12z"/>
<path d="M1785 2451 c-7 -12 12 -24 25 -16 11 7 4 25 -10 25 -5 0 -11 -4 -15
-9z"/>
<path d="M1860 2444 c0 -9 5 -14 12 -12 18 6 21 28 4 28 -9 0 -16 -7 -16 -16z"/>
<path d="M2077 2743 c-12 -11 -8 -23 8 -23 8 0 15 7 15 15 0 16 -12 20 -23 8z"/>
<path d="M2040 2694 c0 -17 22 -14 28 4 2 7 -3 12 -12 12 -9 0 -16 -7 -16 -16z"/>
<path d="M2110 2694 c0 -17 22 -14 28 4 2 7 -3 12 -12 12 -9 0 -16 -7 -16 -16z"/>
<path d="M2007 2673 c-12 -11 -8 -23 8 -23 8 0 15 7 15 15 0 16 -12 20 -23 8z"/>
<path d="M2077 2673 c-12 -11 -8 -23 8 -23 8 0 15 7 15 15 0 16 -12 20 -23 8z"/>
<path d="M2145 2671 c-7 -12 12 -24 25 -16 11 7 4 25 -10 25 -5 0 -11 -4 -15
-9z"/>
<path d="M2040 2624 c0 -9 5 -14 12 -12 18 6 21 28 4 28 -9 0 -16 -7 -16 -16z"/>
<path d="M2110 2624 c0 -9 5 -14 12 -12 18 6 21 28 4 28 -9 0 -16 -7 -16 -16z"/>
<path d="M2005 2600 c-4 -6 -3 -16 3 -22 6 -6 12 -6 17 2 4 6 3 16 -3 22 -6 6
-12 6 -17 -2z"/>
<path d="M2075 2600 c-4 -6 -3 -16 3 -22 6 -6 12 -6 17 2 4 6 3 16 -3 22 -6 6
-12 6 -17 -2z"/>
<path d="M2147 2604 c-8 -8 1 -24 14 -24 5 0 9 7 9 15 0 15 -12 20 -23 9z"/>
<path d="M2040 2555 c0 -9 5 -15 11 -13 6 2 11 8 11 13 0 5 -5 11 -11 13 -6 2
-11 -4 -11 -13z"/>
<path d="M2110 2555 c0 -8 7 -15 15 -15 8 0 15 7 15 15 0 8 -7 15 -15 15 -8 0
-15 -7 -15 -15z"/>
<path d="M2005 2530 c-4 -6 -3 -16 3 -22 6 -6 12 -6 17 2 4 6 3 16 -3 22 -6 6
-12 6 -17 -2z"/>
<path d="M2072 2518 c6 -18 28 -21 28 -4 0 9 -7 16 -16 16 -9 0 -14 -5 -12
-12z"/>
<path d="M2145 2521 c-7 -12 12 -24 25 -16 11 7 4 25 -10 25 -5 0 -11 -4 -15
-9z"/>
<path d="M2040 2486 c0 -9 7 -16 16 -16 17 0 14 22 -4 28 -7 2 -12 -3 -12 -12z"/>
<path d="M2110 2486 c0 -9 7 -16 16 -16 17 0 14 22 -4 28 -7 2 -12 -3 -12 -12z"/>
<path d="M2000 2445 c0 -8 7 -15 15 -15 8 0 15 7 15 15 0 8 -7 15 -15 15 -8 0
-15 -7 -15 -15z"/>
<path d="M2072 2448 c6 -18 28 -21 28 -4 0 9 -7 16 -16 16 -9 0 -14 -5 -12
-12z"/>
<path d="M2145 2451 c-7 -12 12 -24 25 -16 11 7 4 25 -10 25 -5 0 -11 -4 -15
-9z"/>
<path d="M2045 2420 c-4 -6 -3 -16 3 -22 6 -6 12 -6 17 2 4 6 3 16 -3 22 -6 6
-12 6 -17 -2z"/>
<path d="M2115 2420 c-4 -6 -3 -16 3 -22 6 -6 12 -6 17 2 4 6 3 16 -3 22 -6 6
-12 6 -17 -2z"/>
<path d="M2000 2375 c0 -8 7 -15 15 -15 8 0 15 7 15 15 0 8 -7 15 -15 15 -8 0
-15 -7 -15 -15z"/>
<path d="M2077 2383 c-12 -11 -8 -23 8 -23 8 0 15 7 15 15 0 16 -12 20 -23 8z"/>
<path d="M2145 2381 c-7 -12 12 -24 25 -16 11 7 4 25 -10 25 -5 0 -11 -4 -15
-9z"/>
<path d="M2040 2334 c0 -9 5 -14 12 -12 18 6 21 28 4 28 -9 0 -16 -7 -16 -16z"/>
<path d="M2110 2334 c0 -9 5 -14 12 -12 18 6 21 28 4 28 -9 0 -16 -7 -16 -16z"/>
<path d="M2077 2313 c-12 -11 -8 -23 8 -23 8 0 15 7 15 15 0 16 -12 20 -23 8z"/>
<path d="M2145 2311 c-7 -12 12 -24 25 -16 11 7 4 25 -10 25 -5 0 -11 -4 -15
-9z"/>
<path d="M2110 2264 c0 -9 5 -14 12 -12 18 6 21 28 4 28 -9 0 -16 -7 -16 -16z"/>
<path d="M2075 2240 c-4 -6 -3 -16 3 -22 6 -6 12 -6 17 2 4 6 3 16 -3 22 -6 6
-12 6 -17 -2z"/>
<path d="M2147 2244 c-8 -8 1 -24 14 -24 5 0 9 7 9 15 0 15 -12 20 -23 9z"/>
<path d="M1503 394 c-10 -4 -13 -50 -13 -180 l0 -175 28 3 c26 3 27 5 30 75 2
63 5 73 21 73 25 0 31 -19 31 -91 0 -60 0 -60 28 -57 27 3 27 4 26 75 0 43 -5
78 -13 87 -11 13 -11 19 0 32 21 25 17 111 -7 134 -19 19 -107 35 -131 24z
m93 -78 c8 -35 -4 -66 -27 -66 -16 0 -19 7 -19 45 0 38 3 45 20 45 12 0 22 -9
26 -24z"/>
<path d="M1764 376 c-26 -21 -28 -30 -32 -114 -8 -173 12 -222 91 -222 74 0
82 17 82 177 l0 135 -28 24 c-36 30 -78 31 -113 0z m84 -141 c3 -118 -2 -145
-27 -145 -26 0 -31 19 -31 125 0 110 5 127 34 123 20 -3 21 -10 24 -103z"/>
<path d="M2016 379 c-26 -20 -26 -21 -26 -158 0 -165 7 -181 76 -181 59 0 84
25 84 84 0 31 -5 46 -16 50 -22 9 -34 -1 -34 -29 0 -36 -10 -55 -31 -55 -18 0
-19 9 -19 125 0 118 1 125 20 125 14 0 22 -10 28 -32 6 -23 14 -33 28 -33 15
0 20 8 22 37 6 73 -73 114 -132 67z"/>
<path d="M2242 392 c-9 -7 -12 -49 -10 -178 l3 -169 25 0 c23 0 25 4 30 62 4
54 14 85 23 72 2 -2 12 -33 23 -69 18 -57 23 -65 47 -68 34 -4 34 1 -3 121
l-31 96 32 62 c22 45 27 64 19 69 -26 16 -49 -4 -79 -68 l-31 -67 0 66 c0 52
-4 68 -16 73 -19 7 -16 7 -32 -2z"/>
</g>
</svg>
