<?xml version="1.0" standalone="no"?>
<!DOCTYPE svg PUBLIC "-//W3C//DTD SVG 20010904//EN"
 "http://www.w3.org/TR/2001/REC-SVG-20010904/DTD/svg10.dtd">
<svg version="1.0" xmlns="http://www.w3.org/2000/svg"
 width="387.000000pt" height="388.000000pt" viewBox="0 0 387.000000 388.000000"
 preserveAspectRatio="xMidYMid meet">

<g transform="translate(0.000000,388.000000) scale(0.100000,-0.100000)"
fill="#000000" stroke="none">
<path d="M1330 3181 c-67 -133 -64 -315 9 -459 16 -31 110 -152 210 -271 100
-118 181 -217 181 -221 0 -4 -33 -49 -72 -99 l-73 -92 -70 -2 c-170 -6 -290
-127 -289 -292 0 -222 225 -363 422 -264 70 35 105 71 140 148 21 46 24 64 20
136 l-4 83 65 72 66 72 78 -90 77 -91 0 -69 c0 -162 127 -292 286 -292 82 0
144 23 203 76 65 59 95 127 95 219 1 118 -57 210 -162 262 -47 23 -71 28 -136
29 l-79 0 -78 99 -77 99 47 56 c291 336 325 379 357 445 55 114 67 223 39 343
-18 76 -52 145 -68 139 -7 -2 -137 -163 -289 -358 -153 -195 -282 -354 -288
-354 -6 0 -135 159 -288 354 -152 195 -282 356 -289 358 -7 3 -21 -14 -33 -36z
m490 -601 c389 -498 439 -566 423 -575 -24 -13 -105 -94 -124 -124 -15 -24
-18 -20 -369 395 -372 442 -399 479 -421 599 -6 33 -9 87 -6 120 7 74 36 171
47 159 4 -5 207 -263 450 -574z m724 470 c15 -66 11 -166 -10 -236 -22 -76
-85 -168 -197 -286 -10 -11 -64 -74 -119 -140 l-101 -120 -33 38 c-18 22 -33
42 -34 45 0 4 -14 22 -30 40 -51 57 -53 63 -22 101 15 19 36 47 47 62 27 38
247 318 260 332 5 6 19 23 30 39 11 15 56 72 100 127 89 111 85 111 109 -2z
m-710 -939 c36 -43 66 -83 66 -87 0 -5 -27 -38 -61 -73 l-60 -64 -17 24 c-23
34 -72 78 -105 95 -18 10 -25 19 -20 28 19 30 119 155 125 156 3 0 36 -36 72
-79z m-251 -122 c109 -27 187 -130 187 -243 -1 -177 -161 -295 -332 -244 -48
14 -123 78 -147 127 -50 98 -32 211 48 291 70 70 150 93 244 69z m912 -21 c55
-27 80 -52 111 -112 70 -134 0 -302 -146 -351 -171 -57 -343 79 -328 259 15
178 203 284 363 204z"/>
<path d="M1898 2299 c-21 -12 -24 -69 -6 -87 21 -21 66 -14 83 12 34 51 -23
107 -77 75z"/>
<path d="M1451 1862 c-64 -34 -87 -110 -54 -179 22 -48 66 -73 127 -73 43 0
53 4 87 39 36 35 39 43 39 93 0 41 -5 62 -21 82 -44 56 -116 71 -178 38z m128
-48 c66 -55 26 -164 -59 -164 -71 0 -116 66 -90 131 25 59 99 76 149 33z"/>
<path d="M2342 1874 c-76 -22 -114 -91 -92 -169 15 -53 42 -80 96 -94 61 -16
124 8 152 58 66 117 -30 243 -156 205z m87 -49 c86 -44 50 -175 -49 -175 -85
0 -125 109 -59 164 34 29 67 33 108 11z"/>
<path d="M1095 365 c-43 -42 -22 -144 36 -175 26 -14 51 -67 44 -90 -10 -31
-41 -24 -54 11 -14 41 -45 36 -49 -8 -5 -49 27 -75 86 -71 43 3 49 6 65 40 25
52 11 100 -48 158 -32 31 -45 52 -45 72 0 38 36 39 50 2 14 -36 44 -28 48 12
6 65 -85 98 -133 49z"/>
<path d="M1335 365 c-24 -23 -25 -30 -25 -150 0 -163 10 -185 86 -185 50 0 71
20 79 76 5 29 3 43 -8 52 -24 20 -46 4 -49 -36 -2 -29 -7 -37 -23 -37 -19 0
-20 8 -23 123 -3 123 -3 123 20 120 17 -2 24 -11 28 -33 4 -21 12 -31 27 -33
28 -4 38 27 23 72 -19 57 -92 75 -135 31z"/>
<path d="M1567 378 c-15 -8 -17 -29 -17 -163 0 -84 3 -160 6 -169 3 -9 17 -16
30 -16 l24 0 0 174 c0 182 -4 197 -43 174z"/>
<path d="M1737 383 c-20 -5 -47 -52 -47 -83 0 -30 17 -58 67 -113 34 -36 44
-54 41 -75 -4 -36 -40 -38 -48 -2 -4 18 -13 25 -30 25 -34 0 -39 -41 -10 -78
17 -22 30 -27 65 -27 59 0 89 35 82 98 -4 34 -15 53 -56 97 -57 60 -65 97 -24
103 16 2 22 -3 25 -20 2 -17 9 -23 28 -23 22 0 25 4 23 35 -2 56 -48 81 -116
63z"/>
<path d="M1955 365 c-44 -43 -22 -144 37 -176 24 -13 50 -72 42 -93 -10 -27
-41 -18 -53 15 -14 41 -45 36 -49 -8 -4 -43 26 -73 74 -73 50 0 72 15 83 55
14 51 -2 94 -54 145 -32 31 -45 52 -45 72 0 38 36 39 50 2 14 -36 44 -28 48
12 6 65 -85 98 -133 49z"/>
<path d="M2196 367 c-25 -25 -26 -30 -26 -155 0 -116 2 -132 21 -156 16 -21
29 -26 64 -26 36 0 48 5 65 27 20 26 21 37 18 160 -3 150 -8 161 -76 170 -34
5 -44 1 -66 -20z m82 -159 c-3 -115 -4 -123 -23 -123 -19 0 -20 8 -23 123 l-3
122 26 0 26 0 -3 -122z"/>
<path d="M2432 382 c-9 -7 -12 -49 -10 -178 l3 -169 25 0 c24 0 25 3 28 73 3
69 4 73 25 70 20 -3 23 -10 27 -73 5 -68 6 -70 33 -73 l27 -3 0 73 c0 48 -5
81 -14 93 -12 17 -12 22 0 39 16 24 18 89 4 116 -16 30 -116 52 -148 32z m96
-92 c3 -24 -2 -38 -14 -47 -29 -21 -34 -16 -34 38 0 47 2 50 23 47 17 -2 23
-11 25 -38z"/>
<path d="M2696 369 c-22 -17 -26 -28 -26 -69 0 -44 4 -53 51 -104 39 -43 50
-61 47 -83 -4 -37 -39 -39 -48 -3 -7 28 -38 39 -51 19 -10 -17 -1 -59 19 -81
22 -26 96 -24 122 2 39 39 21 135 -35 178 -31 24 -55 69 -48 88 9 23 39 16 52
-12 15 -33 45 -28 49 8 4 37 -37 78 -76 78 -16 0 -41 -9 -56 -21z"/>
</g>
</svg>
